<svg xmlns="http://www.w3.org/2000/svg" version="1.1" width="96px" height="24px" style="shape-rendering:geometricPrecision; text-rendering:geometricPrecision; image-rendering:optimizeQuality; fill-rule:evenodd; clip-rule:evenodd" xmlns:xlink="http://www.w3.org/1999/xlink">
<g><path style="opacity:0.916" fill="#dbcee5" d="M 16.5,19.5 C 15.7561,17.5466 14.2561,16.5466 12,16.5C 10.3189,16.6083 9.1522,17.2749 8.5,18.5C 8.29425,20.5492 7.46092,20.8825 6,19.5C 6.08556,14.5651 7.41889,9.89843 10,5.5C 12,2.83333 14,2.83333 16,5.5C 17.8165,10.4457 19.3165,15.4457 20.5,20.5C 18.901,20.7678 17.5676,20.4345 16.5,19.5 Z"/></g>
<g><path style="opacity:0.986" fill="#d0c4db" d="M 36.5,5.5 C 36.5,8.83333 36.5,12.1667 36.5,15.5C 33.8989,20.4013 29.8989,21.7346 24.5,19.5C 22.6287,15.1338 21.962,10.4671 22.5,5.5C 23.0768,3.34837 24.2435,3.01504 26,4.5C 26.1735,8.54078 26.6735,12.5408 27.5,16.5C 28.7362,17.2458 30.0695,17.5792 31.5,17.5C 31.3345,13.4862 31.5012,9.48617 32,5.5C 33.6889,2.86691 35.1889,2.86691 36.5,5.5 Z"/></g>
<g><path style="opacity:0.885" fill="#f7ebff" d="M 39.5,6.5 C 38.5084,6.67158 37.8417,6.33825 37.5,5.5C 37.4701,4.50278 37.9701,3.83611 39,3.5C 42.4605,4.21809 45.9605,4.71809 49.5,5C 49.8333,5.33333 50.1667,5.66667 50.5,6C 48.8659,6.49351 47.1992,6.66018 45.5,6.5C 45.5,11.1667 45.5,15.8333 45.5,20.5C 44.5,20.5 43.5,20.5 42.5,20.5C 42.5,15.8333 42.5,11.1667 42.5,6.5C 41.5,6.5 40.5,6.5 39.5,6.5 Z"/></g>
<g><path style="opacity:0.91" fill="#f4ebfc" d="M 69.5,10.5 C 69.6061,13.0786 68.9395,15.412 67.5,17.5C 62.13,21.6392 56.9633,21.3059 52,16.5C 49.2489,8.72249 52.0822,4.38916 60.5,3.5C 64.9634,3.9646 67.9634,6.29793 69.5,10.5 Z M 57.5,6.5 C 62.4058,5.30572 65.4058,7.13905 66.5,12C 64.2321,17.8604 60.3988,19.0271 55,15.5C 53.7795,11.7179 54.6128,8.71794 57.5,6.5 Z"/></g>
<g><path style="opacity:0.96" fill="#ebe3f5" d="M 83.5,12.5 C 83.6596,14.153 84.3263,15.4863 85.5,16.5C 85.5,17.8333 85.5,19.1667 85.5,20.5C 83.8007,20.4729 82.4674,19.8062 81.5,18.5C 80.8478,17.2749 79.6811,16.6083 78,16.5C 76.3189,16.6083 75.1522,17.2749 74.5,18.5C 73.2209,19.968 71.5542,20.6347 69.5,20.5C 69.5,19.5 69.5,18.5 69.5,17.5C 69.8333,17.5 70.1667,17.5 70.5,17.5C 71.404,16.791 71.7373,15.791 71.5,14.5C 72.8333,10.8333 74.1667,7.16667 75.5,3.5C 77.288,3.21478 78.9547,3.54811 80.5,4.5C 81.5084,7.19522 82.5084,9.86189 83.5,12.5 Z"/></g>
<g><path style="opacity:0.886" fill="#f6efff" d="M 88.5,3.5 C 89.5,3.5 90.5,3.5 91.5,3.5C 91.6661,9.17645 91.4994,14.8431 91,20.5C 89.8419,20.0019 89.0085,19.1685 88.5,18C 88.7318,13.2748 88.7318,8.44143 88.5,3.5 Z"/></g>
<g><path style="opacity:0.378" fill="#292641" d="M 36.5,5.5 C 36.8333,5.5 37.1667,5.5 37.5,5.5C 37.8417,6.33825 38.5084,6.67158 39.5,6.5C 38.0351,9.3657 37.0351,12.3657 36.5,15.5C 36.5,12.1667 36.5,8.83333 36.5,5.5 Z"/></g>
<g><path style="opacity:0.229" fill="#282841" d="M 77.5,6.5 C 78.5783,8.53935 79.5783,10.706 80.5,13C 78.8333,13.6667 77.1667,13.6667 75.5,13C 76.6687,10.9935 77.3354,8.82682 77.5,6.5 Z"/></g>
<g><path style="opacity:0.712" fill="#292443" d="M 11.5,6.5 C 12.5783,8.53935 13.5783,10.706 14.5,13C 12.8333,13.6667 11.1667,13.6667 9.5,13C 10.6687,10.9935 11.3354,8.82682 11.5,6.5 Z"/></g>
<g><path style="opacity:0.338" fill="#282442" d="M 22.5,5.5 C 21.962,10.4671 22.6287,15.1338 24.5,19.5C 23.5041,19.5858 22.6708,19.2524 22,18.5C 21.1864,13.9796 21.353,9.64631 22.5,5.5 Z"/></g>
<g><path style="opacity:0.181" fill="#272640" d="M 69.5,10.5 C 70.1667,11.8333 70.8333,13.1667 71.5,14.5C 71.7373,15.791 71.404,16.791 70.5,17.5C 70.1667,14.8333 69.8333,14.8333 69.5,17.5C 68.8333,17.5 68.1667,17.5 67.5,17.5C 68.9395,15.412 69.6061,13.0786 69.5,10.5 Z"/></g>
<g><path style="opacity:0.024" fill="#28274a" d="M 83.5,12.5 C 85.1042,13.287 85.7709,14.6203 85.5,16.5C 84.3263,15.4863 83.6596,14.153 83.5,12.5 Z"/></g>
<g><path style="opacity:0.546" fill="#292443" d="M 16.5,19.5 C 14.02,17.5031 11.3533,17.1698 8.5,18.5C 9.1522,17.2749 10.3189,16.6083 12,16.5C 14.2561,16.5466 15.7561,17.5466 16.5,19.5 Z"/></g>
<g><path style="opacity:0.199" fill="#272742" d="M 81.5,18.5 C 79.1667,17.1667 76.8333,17.1667 74.5,18.5C 75.1522,17.2749 76.3189,16.6083 78,16.5C 79.6811,16.6083 80.8478,17.2749 81.5,18.5 Z"/></g>
</svg>